# File created by Blade
# Date/Time:  Tue Sep 30 19:36:50 2014
#---------------------------------------------------------
:version 1.10
:name HOM
:units
  mass 1.0
  length 1.000000
  angle deg
:documentation
     Acclaim Skeleton File
:root
   axis xyz
   order TX TY TZ RX RY RZ
   position 0.000000 0.000000 0.000000
   orientation 0 0 0
:bonedata
   begin
      id 1
      name Spine_dum
      direction 0.000000 1.000000 0.000000
      length 3.241213
      axis 0.0 0.0 0.0 xyz
   end
   begin
      id 2
      name LeftUpLeg_dum
      direction 1.000000 0.000000 0.000000
      length 3.434019
      axis 0.0 0.0 0.0 xyz
   end
   begin
      id 3
      name RightUpLeg_dum
      direction -1.000000 0.000000 0.000000
      length 3.434019
      axis 0.0 0.0 0.0 xyz
   end
   begin
      id 4
      name Spine
      direction 0.000000 1.000000 0.000000
      length 0.000000
      axis 0.0 0.0 0.0 xyz
      dof rx ry rz
   end
   begin
      id 5
      name Spine_dum1
      direction 0.000000 1.000000 0.000000
      length 18.382958
      axis 0.0 0.0 0.0 xyz
   end
   begin
      id 6
      name Spine_dum2
      direction 0.000000 1.000000 0.000000
      length 12.828261
      axis 0.0 0.0 0.0 xyz
   end
   begin
      id 7
      name Spine_dum3
      direction 0.000000 1.000000 0.000000
      length 12.828261
      axis 0.0 0.0 0.0 xyz
   end
   begin
      id 8
      name Head
      direction 0.000000 1.000000 0.000000
      length 4.527550
      axis 0.0 0.0 0.0 xyz
      dof rx ry rz
   end
   begin
      id 9
      name LeftShoulder
      direction 1.000000 0.000000 0.000000
      length 7.748055
      axis 0.0 0.0 -90.0 xyz
      dof rx ry rz
   end
   begin
      id 10
      name LeftArm
      direction 1.000000 0.000000 0.000000
      length 10.635614
      axis 0.0 0.0 -90.0 xyz
      dof rx ry rz
   end
   begin
      id 11
      name LeftForeArm
      direction 1.000000 0.000000 0.000000
      length 8.346755
      axis 0.0 0.0 -90.0 xyz
      dof ry rz rx
   end
   begin
      id 12
      name LeftHand
      direction 0.000000 0.000000 0.000000
      length 0.000000
      axis 0.0 0.0 -90.0 xyz
      dof rx ry rz
   end
   begin
      id 13
      name LeftHand_dum1
      direction 0.000000 0.000000 0.000000
      length 0.000000
      axis 0.0 0.0 -90.0 xyz
   end
   begin
      id 14
      name LeftHand_dum2
      direction 1.000000 0.000000 0.000000
      length 3.937000
      axis 0.0 0.0 -90.0 xyz
   end
   begin
      id 15
      name LeftHandThumb1
      direction 0.000000 0.000000 1.000000
      length 3.937000
      axis 0.0 0.0 -90.0 xyz
      dof rx rz ry
   end
   begin
      id 16
      name RightShoulder
      direction -1.000000 0.000000 0.000000
      length 7.748055
      axis 0.0 0.0 90.0 xyz
      dof rx ry rz
   end
   begin
      id 17
      name RightArm
      direction -1.000000 0.000000 0.000000
      length 10.635614
      axis 0.0 0.0 90.0 xyz
      dof rx ry rz
   end
   begin
      id 18
      name RightForeArm
      direction -1.000000 0.000000 0.000000
      length 8.346755
      axis 0.0 0.0 90.0 xyz
      dof ry rz rx
   end
   begin
      id 19
      name RightHand
      direction 0.000000 0.000000 0.000000
      length 0.000000
      axis 0.0 0.0 90.0 xyz
      dof rx ry rz
   end
   begin
      id 20
      name RightHand_dum1
      direction 0.000000 0.000000 0.000000
      length 0.000000
      axis 0.0 0.0 90.0 xyz
   end
   begin
      id 21
      name RightHand_dum2
      direction -1.000000 0.000000 0.000000
      length 3.937000
      axis 0.0 0.0 90.0 xyz
   end
   begin
      id 22
      name RightHandThumb1
      direction 0.000000 0.000000 1.000000
      length 3.937000
      axis 0.0 0.0 90.0 xyz
      dof rx rz ry
   end
   begin
      id 23
      name LeftUpLeg
      direction 0.000000 -1.000000 0.000000
      length 15.713025
      axis 0.0 0.0 0.0 xyz
      dof rx ry rz
   end
   begin
      id 24
      name LeftLeg
      direction 0.000000 -1.000000 0.000000
      length 14.435119
      axis 0.0 0.0 0.0 xyz
      dof rx ry rz
   end
   begin
      id 25
      name LeftFoot
      direction 0.000000 -0.258819 0.965926
      length 4.938895
      axis 15.0 0.0 0.0 xyz
      dof rx ry rz
   end
   begin
      id 26
      name LeftToeBase
      direction 0.000000 0.000000 1.000000
      length 2.952750
      axis 0.0 0.0 0.0 xyz
      dof rx ry rz
   end
   begin
      id 27
      name RightUpLeg
      direction 0.000000 -1.000000 0.000000
      length 15.713025
      axis 0.0 0.0 0.0 xyz
      dof rx ry rz
   end
   begin
      id 28
      name RightLeg
      direction 0.000000 -1.000000 0.000000
      length 14.435119
      axis 0.0 0.0 0.0 xyz
      dof rx ry rz
   end
   begin
      id 29
      name RightFoot
      direction 0.000000 -0.258819 0.965926
      length 4.938895
      axis 15.0 0.0 0.0 xyz
      dof rx ry rz
   end
   begin
      id 30
      name RightToeBase
      direction 0.000000 0.000000 1.000000
      length 2.952750
      axis 0.0 0.0 0.0 xyz
      dof rx ry rz
   end
:hierarchy
   begin
      root Spine_dum LeftUpLeg_dum RightUpLeg_dum
      Spine_dum Spine
      LeftUpLeg_dum LeftUpLeg
      RightUpLeg_dum RightUpLeg
      Spine Spine_dum1 Spine_dum2 Spine_dum3
      Spine_dum1 Head
      Spine_dum2 LeftShoulder
      Spine_dum3 RightShoulder
      LeftShoulder LeftArm
      LeftArm LeftForeArm
      LeftForeArm LeftHand
      LeftHand LeftHand_dum1 LeftHand_dum2
      LeftHand_dum1 LeftHandThumb1
      RightShoulder RightArm
      RightArm RightForeArm
      RightForeArm RightHand
      RightHand RightHand_dum1 RightHand_dum2
      RightHand_dum1 RightHandThumb1
      LeftUpLeg LeftLeg
      LeftLeg LeftFoot
      LeftFoot LeftToeBase
      RightUpLeg RightLeg
      RightLeg RightFoot
      RightFoot RightToeBase
   end

# File created by Blade
# Date/Time:  Tue Sep 23 19:06:47 2014
# Frame Rate: 120.000 fps
#------------------------------------------------------
:FULLY-SPECIFIED
:DEGREES
349
root 2.745945 33.957061 -5.972422 37.079119 -1.918069 -44.005503
Spine -33.291080 32.551024 18.021798
Head -13.304257 -12.507171 14.976516
LeftShoulder -20.450698 20.129482 33.613995
LeftArm 52.088253 -73.902106 -9.639128
LeftForeArm 97.758631 0.000000 17.348514
LeftHand -14.723485 0.000000 61.688715
LeftHandThumb1 -26.253704 0.000000 33.147579
RightShoulder -11.981171 -1.526448 -19.252776
RightArm 118.144904 41.947516 150.367967
RightForeArm 45.361957 -0.000000 64.579659
RightHand -3.099351 -0.000000 23.448004
RightHandThumb1 -24.326973 -0.000000 -32.862282
LeftUpLeg -44.141063 29.087017 28.016071
LeftLeg 30.793830 -0.000000 -0.000000
LeftFoot -17.305224 25.297230 -2.723951
LeftToeBase 0.352049 -0.000000 -0.000000
RightUpLeg -176.482050 -37.261527 54.297654
RightLeg -3.565349 -0.000000 0.000000
RightFoot 31.455058 -17.760286 12.917457
RightToeBase 34.128112 -0.000000 -0.000000
350
root 2.778525 33.980596 -5.958111 37.305505 -1.979996 -44.007191
Spine -33.573925 32.601520 17.863996
Head -13.176257 -12.453453 15.025510
LeftShoulder -20.473059 19.983314 33.636960
LeftArm 51.653886 -74.084399 -8.587865
LeftForeArm 97.878733 -0.000000 16.815074
LeftHand -14.851893 0.000000 61.767602
LeftHandThumb1 -26.253704 0.000000 33.147579
RightShoulder -11.998897 -1.413463 -19.301752
RightArm 117.905568 42.074571 150.146462
RightForeArm 45.551874 0.000000 64.712076
RightHand -3.118680 -0.000000 23.268431
RightHandThumb1 -24.326973 -0.000000 -32.862282
LeftUpLeg -44.175295 29.094736 27.966111
LeftLeg 30.676811 -0.000000 -0.000000
LeftFoot -17.263341 25.143035 -3.017464
LeftToeBase 0.220402 -0.000000 -0.000000
RightUpLeg -176.605577 -37.129542 54.365056
RightLeg -3.725523 -0.000000 0.000000
RightFoot 31.423656 -17.805108 12.860578
RightToeBase 34.161629 -0.000000 -0.000000
351
root 2.808016 34.004355 -5.943704 37.515864 -2.075405 -43.998061
Spine -33.845421 32.636579 17.675460
Head -13.053688 -12.402962 15.209071
LeftShoulder -20.473518 19.765053 33.784407
LeftArm 51.604277 -74.239231 -8.074144
LeftForeArm 97.855959 0.000000 16.421873
LeftHand -14.717634 -0.000000 61.696729
LeftHandThumb1 -26.253704 0.000000 33.147579
RightShoulder -11.980584 -1.314409 -19.314555
RightArm 117.766686 42.117944 150.037908
RightForeArm 45.450202 0.000000 64.727483
RightHand -3.047609 -0.000000 23.443972
RightHandThumb1 -24.326973 -0.000000 -32.862282
LeftUpLeg -44.171000 29.095565 27.927727
LeftLeg 30.575439 -0.000000 -0.000000
LeftFoot -17.208875 24.983279 -3.296865
LeftToeBase 0.089056 -0.000000 -0.000000
RightUpLeg -176.690251 -36.953569 54.374327
RightLeg -3.905791 -0.000000 0.000000
RightFoot 31.358501 -17.913510 12.959186
RightToeBase 34.291484 -0.000000 -0.000000
352
root 2.833716 34.028302 -5.927279 37.722523 -2.139598 -43.936009
Spine -34.139010 32.568173 17.454333
Head -12.796696 -12.313089 15.272951
LeftShoulder -20.499910 19.532006 33.958860
LeftArm 51.561258 -74.351446 -7.549569
LeftForeArm 97.893878 -0.000000 15.981334
LeftHand -14.752979 -0.000000 61.680420
LeftHandThumb1 -26.253704 0.000000 33.147579
RightShoulder -11.933018 -1.328353 -19.288534
RightArm 117.576004 42.132340 149.869818
RightForeArm 45.594646 -0.000000 64.817529
RightHand -3.013631 -0.000000 23.362074
RightHandThumb1 -24.326973 -0.000000 -32.862282
LeftUpLeg -44.185426 29.008497 27.891655
LeftLeg 30.504918 -0.000000 -0.000000
LeftFoot -17.080608 24.794922 -3.512812
LeftToeBase -0.211307 -0.000000 0.000000
RightUpLeg -176.845974 -36.851812 54.390565
RightLeg -4.073873 -0.000000 0.000000
RightFoot 31.355682 -17.983461 12.928042
RightToeBase 34.235895 -0.000000 -0.000000
353
root 2.857739 34.050246 -5.913991 37.936914 -2.220827 -43.834342
Spine -34.447530 32.447852 17.188301
Head -12.535439 -12.219542 15.480446
LeftShoulder -20.482770 19.349482 34.173831
LeftArm 51.249289 -74.524024 -6.862193
LeftForeArm 97.617051 -0.000000 15.681025
LeftHand -14.469471 -0.000000 61.510959
LeftHandThumb1 -26.253704 0.000000 33.147579
RightShoulder -11.821357 -1.358722 -19.239545
RightArm 117.423080 42.160726 149.707831
RightForeArm 45.764054 -0.000000 64.867104
RightHand -2.954220 -0.000000 23.346467
RightHandThumb1 -24.326973 -0.000000 -32.862282
LeftUpLeg -44.215665 28.875281 27.867753
LeftLeg 30.515496 -0.000000 -0.000000
LeftFoot -16.960882 24.476362 -3.662541
LeftToeBase -0.413001 -0.000000 0.000000
RightUpLeg -177.048261 -36.640059 54.357180
RightLeg -4.160436 -0.000000 0.000000
RightFoot 31.259347 -18.065833 12.901185
RightToeBase 34.286985 -0.000000 -0.000000
